<?xml version="1.0" encoding="iso-8859-1"?>
<!-- Uploaded to: SVG Repo, www.svgrepo.com, Generator: SVG Repo Mixer Tools -->
<svg version="1.1" id="Layer_1" xmlns="http://www.w3.org/2000/svg" xmlns:xlink="http://www.w3.org/1999/xlink" 
	 viewBox="0 0 512 512" xml:space="preserve">
<polygon style="fill:#F2B851;" points="176.3,0 151.8,34.1 151.8,212.5 200.8,212.5 200.8,34.1 "/>
<polygon style="fill:#E04F5F;" points="258.1,0.6 233.6,34.7 233.6,213 282.7,213 282.7,34.7 "/>
<polygon style="fill:#32BEA6;" points="363.5,0.8 334.9,31.6 311.7,218.6 361.5,214.6 383.6,37.7 "/>
<polygon style="fill:#25B6D2;" points="358.8,512 153.2,512 119.8,210.8 392.2,210.8 "/>
<polygon points="384,285.5 387.5,253.5 124.5,253.5 128,285.5 "/>
<g>
	<rect x="151.8" y="34.3" style="fill:#FFFFFF;" width="49" height="8"/>
	<rect x="233.6" y="34.9" style="fill:#FFFFFF;" width="49" height="8"/>
	
		<rect x="334.248" y="34.804" transform="matrix(0.9923 0.1236 -0.1236 0.9923 7.5473 -44.0451)" style="fill:#FFFFFF;" width="48.998" height="8"/>
</g>
</svg>